<svg width="39" height="48" viewBox="0 0 39 48" fill="none" xmlns="http://www.w3.org/2000/svg">
<g clip-path="url(#clip0)">
<path d="M5.90925 32.9984C5.86776 33.0639 5.82627 33.1175 5.77885 33.1473C5.73144 33.183 5.67217 33.195 5.60104 33.195C5.53584 33.195 5.47065 33.1771 5.39359 33.1354C5.32247 33.0937 5.23949 33.052 5.14466 32.9984C5.04982 32.9507 4.94314 32.903 4.8246 32.8613C4.70605 32.8196 4.56973 32.8018 4.41563 32.8018C4.15484 32.8018 3.95332 32.8554 3.82885 32.9686C3.69845 33.0818 3.63326 33.2367 3.63326 33.4273C3.63326 33.5524 3.67474 33.6537 3.7518 33.7311C3.82885 33.8145 3.92961 33.8801 4.06 33.9397C4.18447 33.9992 4.33265 34.0528 4.49268 34.1005C4.65271 34.1482 4.81867 34.2018 4.99055 34.2614C5.16244 34.3209 5.3284 34.3924 5.48843 34.4699C5.64846 34.5533 5.79663 34.6546 5.9211 34.7797C6.04557 34.9048 6.14633 35.0597 6.22931 35.2384C6.30636 35.4171 6.34785 35.6376 6.34785 35.8878C6.34785 36.1678 6.30044 36.4299 6.19968 36.6801C6.10484 36.9244 5.96259 37.1389 5.77885 37.3235C5.59511 37.5082 5.36989 37.6512 5.09724 37.7525C4.8246 37.8538 4.52232 37.9074 4.17855 37.9074C3.98888 37.9074 3.79921 37.8895 3.60362 37.8478C3.40803 37.8061 3.21836 37.7525 3.03462 37.681C2.85088 37.6095 2.679 37.5261 2.51897 37.4308C2.35894 37.3355 2.21669 37.2223 2.09814 37.1031L2.51304 36.4418C2.5486 36.3942 2.59009 36.3525 2.64343 36.3227C2.69678 36.2929 2.75605 36.275 2.82125 36.275C2.90423 36.275 2.9872 36.2988 3.07018 36.3525C3.15316 36.4061 3.248 36.4657 3.35468 36.5252C3.46137 36.5908 3.58584 36.6503 3.72216 36.698C3.85848 36.7516 4.02444 36.7754 4.21411 36.7754C4.46897 36.7754 4.67049 36.7218 4.80681 36.6086C4.94906 36.4954 5.02019 36.3167 5.02019 36.0725C5.02019 35.9295 4.9787 35.8163 4.90165 35.7269C4.8246 35.6376 4.72384 35.5661 4.59344 35.5065C4.46897 35.4469 4.32079 35.3993 4.16076 35.3516C4.00073 35.3099 3.83478 35.2563 3.66289 35.2027C3.49101 35.149 3.33097 35.0835 3.16502 35.0001C3.00499 34.9226 2.86274 34.8154 2.73234 34.6843C2.60787 34.5533 2.50711 34.3924 2.42413 34.2018C2.34708 34.0052 2.30559 33.7669 2.30559 33.4869C2.30559 33.2605 2.35301 33.0341 2.44191 32.8196C2.53082 32.5992 2.66714 32.4086 2.84496 32.2358C3.02277 32.063 3.24207 31.932 3.49693 31.8307C3.75772 31.7294 4.04815 31.6758 4.38599 31.6758C4.56973 31.6758 4.75347 31.6877 4.93128 31.7175C5.10909 31.7473 5.27505 31.789 5.43508 31.8485C5.59511 31.9081 5.74329 31.9737 5.87961 32.0511C6.01594 32.1286 6.1404 32.2179 6.24709 32.3192L5.90925 32.9984Z" fill="#234465"/>
<path d="M9.00908 33.4531C9.33507 33.4531 9.63736 33.5067 9.90407 33.608C10.1708 33.7093 10.4019 33.8582 10.5975 34.0489C10.7931 34.2395 10.9413 34.4719 11.048 34.7519C11.1547 35.0259 11.208 35.3357 11.208 35.6753C11.208 36.0208 11.1547 36.3306 11.048 36.6106C10.9413 36.8906 10.7931 37.123 10.5975 37.3196C10.4019 37.5162 10.1767 37.6651 9.90407 37.7664C9.63736 37.8736 9.33507 37.9213 9.00908 37.9213C8.67717 37.9213 8.38082 37.8677 8.10817 37.7664C7.83552 37.6651 7.60437 37.5102 7.40877 37.3196C7.21318 37.123 7.065 36.8906 6.95239 36.6106C6.8457 36.3306 6.79236 36.0208 6.79236 35.6753C6.79236 35.3298 6.8457 35.0259 6.95239 34.7519C7.05908 34.4778 7.21318 34.2455 7.40877 34.0489C7.60437 33.8523 7.83552 33.7093 8.10817 33.608C8.38082 33.5067 8.67717 33.4531 9.00908 33.4531ZM9.00908 36.9621C9.30544 36.9621 9.52474 36.8549 9.66699 36.6464C9.80924 36.4379 9.87444 36.1161 9.87444 35.6872C9.87444 35.2583 9.80331 34.9366 9.66699 34.728C9.52474 34.5195 9.31137 34.4123 9.00908 34.4123C8.7068 34.4123 8.48158 34.5195 8.33933 34.728C8.19708 34.9366 8.12595 35.2583 8.12595 35.6872C8.12595 36.1161 8.19708 36.4379 8.33933 36.6464C8.48158 36.8549 8.7068 36.9621 9.00908 36.9621Z" fill="#234465"/>
<path d="M16.1689 34.4148V36.5655C16.1689 36.6667 16.1926 36.7501 16.24 36.8157C16.2875 36.8812 16.3586 36.911 16.4475 36.911C16.4949 36.911 16.5364 36.905 16.566 36.8991C16.5957 36.8872 16.6253 36.8753 16.649 36.8633C16.6727 36.8514 16.6964 36.8395 16.7142 36.8276C16.732 36.8157 16.7616 36.8157 16.7853 36.8157C16.8268 36.8157 16.8565 36.8276 16.8802 36.8455C16.9039 36.8633 16.9276 36.8931 16.9513 36.9289L17.3425 37.5425C17.1765 37.6676 16.9868 37.7629 16.7794 37.8225C16.572 37.888 16.3586 37.9178 16.1333 37.9178C15.9259 37.9178 15.7481 37.888 15.5881 37.8285C15.434 37.7689 15.2976 37.6855 15.1909 37.5723C15.0843 37.4651 15.0013 37.328 14.9479 37.1731C14.8946 37.0182 14.865 36.8455 14.865 36.6489V34.4088H13.3298V37.8523H12.0377V34.4088L11.7532 34.3493C11.6584 34.3254 11.5754 34.2897 11.5162 34.242C11.4569 34.1944 11.4272 34.1229 11.4272 34.0335V33.5212H12.0318V33.2769C12.0318 33.0267 12.0733 32.8063 12.1503 32.6037C12.2274 32.4011 12.3459 32.2343 12.4941 32.0913C12.6423 31.9484 12.826 31.8411 13.0394 31.7637C13.2528 31.6862 13.4958 31.6445 13.7684 31.6445C13.8751 31.6445 13.97 31.6505 14.0589 31.6624C14.1478 31.6743 14.2426 31.6922 14.3374 31.722L14.3137 32.3535C14.3137 32.3952 14.3019 32.4369 14.2782 32.4667C14.2604 32.4965 14.2308 32.5203 14.2011 32.5382C14.1715 32.556 14.1359 32.568 14.1004 32.5799C14.0648 32.5858 14.0292 32.5918 13.9937 32.5918C13.8811 32.5918 13.7803 32.6037 13.6914 32.6275C13.6025 32.6514 13.5314 32.6871 13.4662 32.7467C13.4069 32.8063 13.3595 32.8777 13.3298 32.9731C13.3002 33.0684 13.2824 33.1816 13.2824 33.3246V33.5271H14.9361L15.1969 32.4607C15.2324 32.3296 15.3273 32.2582 15.4814 32.2582H16.1571V33.5271H17.2239V34.4148H16.1689Z" fill="#234465"/>
<path d="M24.1468 33.5177L22.8073 37.8548H21.7582C21.7049 37.8548 21.6575 37.8369 21.616 37.8071C21.5745 37.7714 21.5448 37.7177 21.5271 37.6403L20.9106 35.4777C20.881 35.3824 20.8514 35.2811 20.8277 35.1917C20.804 35.0964 20.7802 35.0011 20.7625 34.9058C20.7447 35.0011 20.721 35.1024 20.6973 35.1977C20.6736 35.293 20.6439 35.3943 20.6143 35.4896L19.9919 37.6403C19.9505 37.7833 19.8615 37.8548 19.7193 37.8548H18.7236L17.384 33.5177H18.4153C18.5043 33.5177 18.5813 33.5415 18.6465 33.5832C18.7117 33.6249 18.7532 33.6785 18.771 33.7441L19.2036 35.6862C19.2392 35.8352 19.2688 35.9781 19.2985 36.1152C19.3281 36.2522 19.3518 36.3892 19.3755 36.5322C19.4111 36.3952 19.4526 36.2522 19.4881 36.1152C19.5296 35.9781 19.5711 35.8352 19.6185 35.6862L20.1579 33.7381C20.1816 33.6726 20.2231 33.619 20.2824 33.5773C20.3416 33.5355 20.4128 33.5117 20.5017 33.5117H21.0766C21.1655 33.5117 21.2426 33.5355 21.3078 33.5773C21.373 33.619 21.4144 33.6726 21.4322 33.7381L21.9479 35.6862C21.9894 35.8352 22.0309 35.9781 22.0723 36.1152C22.1138 36.2522 22.1494 36.3952 22.185 36.5382C22.2087 36.4011 22.2324 36.2581 22.262 36.1211C22.2916 35.9841 22.3272 35.8352 22.3687 35.6862L22.8251 33.7441C22.8488 33.6785 22.8903 33.6249 22.9496 33.5832C23.0088 33.5415 23.0799 33.5177 23.1629 33.5177H24.1468Z" fill="#234465"/>
<path d="M24.4432 34.1187C24.704 33.8864 24.9944 33.7136 25.3086 33.6004C25.6286 33.4872 25.9665 33.4336 26.328 33.4336C26.5888 33.4336 26.8259 33.4753 27.0334 33.5587C27.2408 33.6421 27.4186 33.7613 27.5668 33.9162C27.715 34.0711 27.8217 34.2498 27.9046 34.4583C27.9817 34.6668 28.0232 34.8932 28.0232 35.1434V37.8541H27.4305C27.306 37.8541 27.2171 37.8362 27.1519 37.8064C27.0867 37.7766 27.0393 37.7052 26.9978 37.5979L26.9089 37.3596C26.8022 37.449 26.6955 37.5324 26.5947 37.6039C26.494 37.6754 26.3932 37.7349 26.2865 37.7826C26.1799 37.8303 26.0672 37.866 25.9428 37.8898C25.8242 37.9137 25.6879 37.9256 25.5397 37.9256C25.3441 37.9256 25.1663 37.9018 25.0004 37.8481C24.8403 37.7945 24.704 37.723 24.5914 37.6218C24.4788 37.5205 24.3899 37.3954 24.3306 37.2464C24.2713 37.0975 24.2417 36.9247 24.2417 36.7281C24.2417 36.5732 24.2832 36.4124 24.3602 36.2515C24.4373 36.0907 24.5736 35.9477 24.7633 35.8107C24.9529 35.6796 25.2137 35.5664 25.5397 35.477C25.8657 35.3877 26.2747 35.34 26.7666 35.3281V35.1434C26.7666 34.8872 26.7133 34.7085 26.6125 34.5953C26.5058 34.4821 26.3636 34.4285 26.168 34.4285C26.0139 34.4285 25.8894 34.4464 25.7946 34.4762C25.6998 34.5119 25.6109 34.5477 25.5338 34.5894C25.4567 34.6311 25.3856 34.6668 25.3086 34.7026C25.2315 34.7383 25.1485 34.7502 25.0478 34.7502C24.9589 34.7502 24.8818 34.7264 24.8226 34.6847C24.7633 34.643 24.7099 34.5894 24.6744 34.5238L24.4432 34.1187ZM26.7666 36.0907C26.5058 36.1026 26.2984 36.1264 26.1324 36.1562C25.9665 36.186 25.8361 36.2336 25.7353 36.2813C25.6405 36.329 25.5694 36.3885 25.5338 36.4541C25.4982 36.5196 25.4805 36.5851 25.4805 36.6626C25.4805 36.8115 25.5219 36.9128 25.599 36.9724C25.682 37.032 25.7946 37.0617 25.9546 37.0617C26.1206 37.0617 26.2688 37.032 26.3932 36.9724C26.5177 36.9128 26.6422 36.8175 26.7726 36.6864L26.7666 36.0907Z" fill="#234465"/>
<path d="M30.0502 34.1902C30.1806 33.9579 30.3347 33.7732 30.5125 33.6361C30.6844 33.5051 30.8859 33.4336 31.1112 33.4336C31.3067 33.4336 31.4609 33.4813 31.5853 33.5706L31.5023 34.5238C31.4905 34.5834 31.4668 34.6251 31.4312 34.6489C31.4016 34.6728 31.3542 34.6847 31.3008 34.6847C31.2771 34.6847 31.2475 34.6847 31.2119 34.6787C31.1763 34.6787 31.1408 34.6728 31.0993 34.6668C31.0578 34.6608 31.0222 34.6608 30.9808 34.6549C30.9393 34.6489 30.9037 34.6489 30.8681 34.6489C30.6785 34.6489 30.5303 34.6966 30.4177 34.7979C30.3051 34.8991 30.2102 35.0362 30.1332 35.2149V37.8481H28.8411V33.511H29.6057C29.6709 33.511 29.7242 33.517 29.7657 33.5289C29.8072 33.5408 29.8427 33.5587 29.8724 33.5825C29.902 33.6064 29.9257 33.6361 29.9376 33.6779C29.9554 33.7196 29.9672 33.7672 29.9791 33.8208L30.0502 34.1902Z" fill="#234465"/>
<path d="M33.0077 35.9175C33.0492 36.2809 33.1559 36.543 33.3337 36.7039C33.5115 36.8647 33.7426 36.9482 34.0212 36.9482C34.1694 36.9482 34.2998 36.9303 34.4065 36.8945C34.5132 36.8588 34.6139 36.8171 34.6969 36.7754C34.7799 36.7337 34.8569 36.692 34.928 36.6562C34.9992 36.6205 35.0703 36.6026 35.1533 36.6026C35.254 36.6026 35.3311 36.6384 35.3844 36.7158L35.7578 37.1805C35.6274 37.3354 35.4793 37.4605 35.3252 37.5558C35.1711 37.6511 35.011 37.7286 34.851 37.7822C34.691 37.8358 34.525 37.8716 34.365 37.8954C34.2049 37.9192 34.0508 37.9252 33.9027 37.9252C33.6004 37.9252 33.3159 37.8775 33.0492 37.7763C32.7824 37.675 32.5513 37.532 32.3557 37.3354C32.1601 37.1388 32.0001 36.9005 31.8875 36.6086C31.7748 36.3167 31.7156 35.983 31.7156 35.5958C31.7156 35.3039 31.763 35.0298 31.8638 34.7737C31.9645 34.5115 32.1008 34.2851 32.2905 34.0945C32.4742 33.8979 32.6995 33.743 32.9603 33.6298C33.2211 33.5166 33.5174 33.457 33.8493 33.457C34.1338 33.457 34.3946 33.4987 34.6317 33.5881C34.8688 33.6775 35.0703 33.8085 35.2422 33.9753C35.4141 34.1481 35.5445 34.3566 35.6393 34.6009C35.7341 34.8451 35.7815 35.1251 35.7815 35.4409C35.7815 35.5362 35.7756 35.6196 35.7697 35.6792C35.7638 35.7388 35.746 35.7864 35.7223 35.8281C35.6986 35.8639 35.6689 35.8877 35.6334 35.9056C35.5978 35.9235 35.5504 35.9294 35.4911 35.9294H33.0077V35.9175ZM34.6258 35.1668C34.6258 35.0656 34.6139 34.9643 34.5843 34.863C34.5606 34.7677 34.5132 34.6783 34.4539 34.6009C34.3946 34.5234 34.3176 34.4639 34.2168 34.4162C34.122 34.3685 34.0034 34.3447 33.8612 34.3447C33.6182 34.3447 33.4285 34.4162 33.2862 34.5532C33.1499 34.6962 33.0551 34.8988 33.0136 35.1609L34.6258 35.1668Z" fill="#234465"/>
<path d="M2.88048 44.9141C3.07015 44.9141 3.23611 44.8843 3.38428 44.8188C3.53246 44.7533 3.65693 44.6639 3.76362 44.5507C3.86438 44.4316 3.94736 44.2886 4.0007 44.1218C4.05404 43.9549 4.08368 43.7643 4.08368 43.5439V39.9336H5.48839V43.5439C5.48839 43.9192 5.42912 44.2588 5.30466 44.5745C5.18611 44.8843 5.01423 45.1584 4.789 45.3788C4.56377 45.6052 4.29113 45.778 3.97106 45.9031C3.651 46.0282 3.28945 46.0937 2.88641 46.0937C2.48337 46.0937 2.11589 46.0282 1.79583 45.9031C1.47577 45.778 1.20312 45.5992 0.977892 45.3788C0.752663 45.1524 0.580778 44.8843 0.462236 44.5745C0.343695 44.2647 0.284424 43.9192 0.284424 43.5439V39.9336H1.68914V43.5379C1.68914 43.7524 1.71878 43.943 1.77212 44.1158C1.82546 44.2826 1.90252 44.4256 2.0092 44.5447C2.10996 44.6639 2.23443 44.7533 2.38854 44.8188C2.51893 44.8843 2.69082 44.9141 2.88048 44.9141Z" fill="#234465"/>
<path d="M7.47406 42.163C7.55703 42.0856 7.64594 42.0141 7.73485 41.9486C7.82375 41.883 7.91859 41.8235 8.01935 41.7818C8.12011 41.7341 8.23272 41.6983 8.34533 41.6745C8.46388 41.6507 8.59427 41.6328 8.73059 41.6328C8.96768 41.6328 9.17512 41.6745 9.35886 41.7579C9.5426 41.8413 9.69671 41.9545 9.82117 42.1035C9.94564 42.2524 10.0405 42.4252 10.1057 42.6277C10.1709 42.8303 10.2005 43.0507 10.2005 43.289V46.0474H8.90841V43.289C8.90841 43.0745 8.86099 42.9137 8.76023 42.7945C8.6654 42.6754 8.52315 42.6158 8.33348 42.6158C8.19123 42.6158 8.06083 42.6456 7.93637 42.7052C7.8119 42.7647 7.69336 42.8482 7.57482 42.9494V46.0414H6.28271V41.7043H7.08287C7.2429 41.7043 7.34959 41.7758 7.397 41.9247L7.47406 42.163Z" fill="#234465"/>
<path d="M12.4824 40.5048C12.4824 40.606 12.4587 40.7073 12.4172 40.7967C12.3757 40.886 12.3164 40.9694 12.2453 41.035C12.1742 41.1005 12.0912 41.1601 11.9964 41.1958C11.9016 41.2375 11.8008 41.2554 11.6882 41.2554C11.5815 41.2554 11.4867 41.2375 11.3918 41.1958C11.3029 41.1541 11.2199 41.1005 11.1488 41.035C11.0777 40.9694 11.0243 40.886 10.9829 40.7967C10.9414 40.7073 10.9236 40.612 10.9236 40.5048C10.9236 40.3975 10.9414 40.3022 10.9829 40.2069C11.0243 40.1175 11.0777 40.0341 11.1488 39.9626C11.2199 39.8911 11.3029 39.8375 11.3918 39.8018C11.4807 39.7601 11.5815 39.7422 11.6882 39.7422C11.7949 39.7422 11.8956 39.7601 11.9964 39.8018C12.0912 39.8435 12.1742 39.8971 12.2453 39.9626C12.3164 40.0341 12.3757 40.1116 12.4172 40.2069C12.4587 40.3022 12.4824 40.3975 12.4824 40.5048ZM12.3461 41.6903V46.0274H11.054V41.6903H12.3461Z" fill="#234465"/>
<path d="M17.3129 41.6914L15.6415 46.0285H14.4679L12.7965 41.6914H13.8693C13.9582 41.6914 14.0353 41.7152 14.1005 41.7569C14.1657 41.7986 14.2071 41.8523 14.2249 41.9178L14.8236 43.86C14.8769 44.0208 14.9243 44.1757 14.9658 44.3246C15.0073 44.4736 15.0429 44.6285 15.0725 44.7774C15.1318 44.4736 15.2207 44.1697 15.3274 43.86L15.9497 41.9178C15.9734 41.8523 16.0149 41.7986 16.0742 41.7569C16.1334 41.7152 16.2046 41.6914 16.2875 41.6914H17.3129Z" fill="#234465"/>
<path d="M18.6525 44.0933C18.6939 44.4567 18.8006 44.7188 18.9784 44.8797C19.1563 45.0405 19.3874 45.1239 19.666 45.1239C19.8142 45.1239 19.9446 45.1061 20.0512 45.0703C20.1579 45.0346 20.2587 44.9929 20.3417 44.9512C20.4246 44.9095 20.5017 44.8678 20.5728 44.832C20.6439 44.7963 20.7151 44.7784 20.798 44.7784C20.8988 44.7784 20.9759 44.8141 21.0292 44.8916L21.4026 45.3563C21.2722 45.5112 21.124 45.6363 20.9699 45.7316C20.8158 45.8269 20.6558 45.9044 20.4958 45.958C20.3357 46.0116 20.1698 46.0474 20.0098 46.0712C19.8497 46.095 19.6956 46.101 19.5474 46.101C19.2452 46.101 18.9607 46.0533 18.6939 45.952C18.4272 45.8508 18.1961 45.7078 18.0005 45.5112C17.8049 45.3146 17.6449 45.0763 17.5322 44.7844C17.4196 44.4924 17.3604 44.1588 17.3604 43.7716C17.3604 43.4797 17.4078 43.2056 17.5085 42.9494C17.6093 42.6873 17.7456 42.4609 17.9353 42.2703C18.119 42.0737 18.3442 41.9188 18.605 41.8056C18.8658 41.6924 19.1622 41.6328 19.4941 41.6328C19.7786 41.6328 20.0394 41.6745 20.2765 41.7639C20.5136 41.8532 20.7151 41.9843 20.887 42.1511C21.0588 42.3239 21.1892 42.5324 21.2841 42.7767C21.3789 43.0209 21.4263 43.3009 21.4263 43.6167C21.4263 43.712 21.4204 43.7954 21.4145 43.855C21.4085 43.9146 21.3908 43.9622 21.367 44.0039C21.3433 44.0397 21.3137 44.0635 21.2781 44.0814C21.2426 44.0992 21.1952 44.1052 21.1359 44.1052H18.6525V44.0933ZM20.2765 43.3426C20.2765 43.2414 20.2646 43.1401 20.235 43.0388C20.2113 42.9435 20.1639 42.8541 20.1046 42.7767C20.0453 42.6992 19.9683 42.6396 19.8675 42.592C19.7727 42.5443 19.6541 42.5205 19.5119 42.5205C19.2689 42.5205 19.0792 42.592 18.937 42.729C18.8006 42.872 18.7058 43.0745 18.6643 43.3367L20.2765 43.3426Z" fill="#234465"/>
<path d="M23.2815 42.3621C23.4119 42.1297 23.566 41.945 23.7438 41.808C23.9157 41.677 24.1172 41.6055 24.3425 41.6055C24.538 41.6055 24.6922 41.6531 24.8166 41.7425L24.7336 42.6957C24.7218 42.7553 24.6981 42.797 24.6625 42.8208C24.6329 42.8446 24.5855 42.8566 24.5321 42.8566C24.5084 42.8566 24.4788 42.8566 24.4432 42.8506C24.4077 42.8506 24.3721 42.8446 24.3306 42.8387C24.2891 42.8327 24.2535 42.8327 24.2121 42.8268C24.1706 42.8208 24.135 42.8208 24.0994 42.8208C23.9098 42.8208 23.7616 42.8685 23.649 42.9697C23.5364 43.071 23.4415 43.208 23.3645 43.3868V46.02H22.0724V41.6829H22.837C22.9022 41.6829 22.9555 41.6889 22.997 41.7008C23.0385 41.7127 23.0741 41.7306 23.1037 41.7544C23.1333 41.7782 23.157 41.808 23.1689 41.8497C23.1867 41.8914 23.1985 41.9391 23.2104 41.9927L23.2815 42.3621Z" fill="#234465"/>
<path d="M27.9935 42.6454C27.9579 42.699 27.9224 42.7348 27.8868 42.7586C27.8512 42.7824 27.8038 42.7943 27.7445 42.7943C27.6853 42.7943 27.6201 42.7824 27.5608 42.7526C27.5015 42.7288 27.4363 42.699 27.3652 42.6692C27.2941 42.6394 27.217 42.6097 27.1281 42.5858C27.0392 42.562 26.9385 42.5441 26.8258 42.5441C26.6599 42.5441 26.5354 42.5739 26.4465 42.6394C26.3576 42.705 26.3161 42.7884 26.3161 42.9016C26.3161 42.985 26.3458 43.0505 26.3991 43.1041C26.4584 43.1578 26.5295 43.2054 26.6243 43.2471C26.7192 43.2888 26.8258 43.3246 26.9444 43.3603C27.0629 43.3961 27.1874 43.4378 27.3119 43.4795C27.4363 43.5212 27.5608 43.5748 27.6793 43.6344C27.7979 43.6939 27.9046 43.7654 27.9994 43.8548C28.0942 43.9441 28.1713 44.0514 28.2246 44.1765C28.2839 44.3016 28.3076 44.4505 28.3076 44.6293C28.3076 44.8437 28.2661 45.0403 28.1891 45.225C28.112 45.4037 27.9935 45.5646 27.8394 45.6957C27.6853 45.8267 27.4956 45.928 27.2704 45.9995C27.0451 46.071 26.7844 46.1067 26.488 46.1067C26.3398 46.1067 26.1917 46.0948 26.0494 46.065C25.9012 46.0353 25.759 45.9995 25.6227 45.9518C25.4863 45.9042 25.3559 45.8506 25.2433 45.785C25.1248 45.7195 25.024 45.648 24.941 45.5765L25.2433 45.0999C25.2789 45.0463 25.3204 44.9986 25.3678 44.9688C25.4211 44.9391 25.4863 44.9212 25.5634 44.9212C25.6404 44.9212 25.7056 44.9391 25.7649 44.9688C25.8242 45.0046 25.8894 45.0403 25.9605 45.0761C26.0316 45.1178 26.1087 45.1535 26.2035 45.1833C26.2983 45.2191 26.411 45.231 26.5532 45.231C26.654 45.231 26.7369 45.2191 26.8081 45.2012C26.8792 45.1774 26.9325 45.1535 26.974 45.1178C27.0155 45.082 27.0451 45.0403 27.0629 44.9986C27.0807 44.9569 27.0926 44.9093 27.0926 44.8616C27.0926 44.7782 27.0629 44.7067 27.0037 44.6471C26.9444 44.5935 26.8673 44.5459 26.7725 44.5042C26.6777 44.4625 26.571 44.4267 26.4524 44.391C26.3339 44.3552 26.2094 44.3135 26.085 44.2718C25.9605 44.2301 25.836 44.1765 25.7175 44.111C25.5989 44.0454 25.4923 43.968 25.3974 43.8727C25.3026 43.7773 25.2255 43.6582 25.1663 43.5212C25.107 43.3841 25.0774 43.2114 25.0774 43.0148C25.0774 42.8301 25.1129 42.6573 25.184 42.4905C25.2552 42.3237 25.3619 42.1807 25.5041 42.0556C25.6464 41.9305 25.8242 41.8292 26.0375 41.7577C26.2509 41.6862 26.4999 41.6445 26.7844 41.6445C26.9385 41.6445 27.0926 41.6564 27.2348 41.6862C27.383 41.716 27.5193 41.7518 27.6438 41.8054C27.7742 41.853 27.8868 41.9126 27.9935 41.9841C28.1002 42.0496 28.1891 42.1271 28.272 42.2105L27.9935 42.6454Z" fill="#234465"/>
<path d="M30.4058 40.5048C30.4058 40.606 30.3821 40.7073 30.3406 40.7967C30.2991 40.886 30.2398 40.9694 30.1687 41.035C30.0976 41.1005 30.0146 41.1601 29.9197 41.1958C29.8249 41.2375 29.7241 41.2554 29.6115 41.2554C29.5048 41.2554 29.41 41.2375 29.3152 41.1958C29.2263 41.1541 29.1433 41.1005 29.0722 41.035C29.001 40.9694 28.9477 40.886 28.9062 40.7967C28.8647 40.7073 28.8469 40.612 28.8469 40.5048C28.8469 40.3975 28.8647 40.3022 28.9062 40.2069C28.9477 40.1175 29.001 40.0341 29.0722 39.9626C29.1433 39.8911 29.2263 39.8375 29.3152 39.8018C29.4041 39.766 29.5048 39.7422 29.6115 39.7422C29.7182 39.7422 29.819 39.7601 29.9197 39.8018C30.0205 39.8435 30.0976 39.8971 30.1687 39.9626C30.2398 40.0341 30.2991 40.1116 30.3406 40.2069C30.388 40.3022 30.4058 40.3975 30.4058 40.5048ZM30.2754 41.6903V46.0274H28.9832V41.6903H30.2754Z" fill="#234465"/>
<path d="M32.7234 46.0914C32.5159 46.0914 32.3381 46.0616 32.1781 46.0021C32.024 45.9425 31.8876 45.8591 31.781 45.7459C31.6743 45.6386 31.5913 45.5016 31.5379 45.3467C31.4846 45.1918 31.455 45.0191 31.455 44.8225V42.5824H31.0875C31.0223 42.5824 30.963 42.5586 30.9156 42.5169C30.8682 42.4752 30.8445 42.4096 30.8445 42.3262V41.8199L31.532 41.6888L31.7869 40.6283C31.8224 40.4973 31.9173 40.4258 32.0714 40.4258H32.7471V41.7007H33.8139V42.5884H32.7471V44.7391C32.7471 44.8403 32.7708 44.9237 32.8182 44.9893C32.8656 45.0548 32.9367 45.0846 33.0256 45.0846C33.0731 45.0846 33.1145 45.0786 33.1442 45.0727C33.1738 45.0608 33.2035 45.0488 33.2272 45.0369C33.2509 45.025 33.2746 45.0131 33.2924 45.0012C33.3161 44.9893 33.3398 44.9893 33.3635 44.9893C33.405 44.9893 33.4346 45.0012 33.4583 45.0191C33.482 45.0369 33.5057 45.0667 33.5294 45.1025L33.9206 45.7161C33.7547 45.8412 33.565 45.9365 33.3576 45.9961C33.1501 46.0557 32.9427 46.0914 32.7234 46.0914Z" fill="#234465"/>
<path d="M38.4726 41.6914L36.167 47.1545C36.1255 47.2438 36.0781 47.3034 36.0247 47.3451C35.9714 47.3868 35.8825 47.4047 35.758 47.4047H34.7919L35.6217 45.6472L33.9028 41.6914H35.0408C35.1416 41.6914 35.2186 41.7152 35.272 41.7569C35.3253 41.7986 35.3668 41.8523 35.3905 41.9178L36.0958 43.7885C36.161 43.9612 36.2144 44.134 36.2559 44.3127C36.2855 44.2234 36.3151 44.134 36.3448 44.0446C36.3744 43.9553 36.41 43.8659 36.4396 43.7825L37.0797 41.9238C37.1034 41.8582 37.1509 41.8046 37.2101 41.7629C37.2753 41.7212 37.3405 41.6974 37.4176 41.6974L38.4726 41.6914Z" fill="#234465"/>
<path d="M35.5209 7.72134L21.9301 0.453125V4.64724L30.8859 9.58605L21.9301 14.1734V18.3198L27.6675 15.3828V20.7267L19.423 24.8433L19.4111 24.8374L19.3993 24.8433L11.1607 20.7267V15.3828L16.8862 18.3198V14.1674L7.94227 9.58605L16.8862 4.6532V0.459083L3.04651 7.85836V11.2244L7.47996 13.4942V23.0203L19.4111 28.9779L31.3483 23.0203V13.4942L35.5209 11.3554V7.72134Z" fill="#FFA000"/>
</g>
<defs>
<clipPath id="clip0">
<rect width="38.7097" height="48" fill="white"/>
</clipPath>
</defs>
</svg>
