<?xml version="1.0" encoding="UTF-8" standalone="no"?>
<svg
   width="512"
   height="143.04379"
   viewBox="0 0 512 143.04379"
   fill="none"
   version="1.1"
   id="svg45"
   sodipodi:docname="software-university-horizontal-logo.svg"
   inkscape:version="1.1.1 (3bf5ae0d25, 2021-09-20)"
   xmlns:inkscape="http://www.inkscape.org/namespaces/inkscape"
   xmlns:sodipodi="http://sodipodi.sourceforge.net/DTD/sodipodi-0.dtd"
   xmlns="http://www.w3.org/2000/svg"
   xmlns:svg="http://www.w3.org/2000/svg">
  <sodipodi:namedview
     id="namedview47"
     pagecolor="#ffffff"
     bordercolor="#666666"
     borderopacity="1.0"
     inkscape:pageshadow="2"
     inkscape:pageopacity="0.0"
     inkscape:pagecheckerboard="0"
     showgrid="false"
     inkscape:zoom="0.97072115"
     inkscape:cx="77.777228"
     inkscape:cy="62.324798"
     inkscape:window-width="1920"
     inkscape:window-height="991"
     inkscape:window-x="-9"
     inkscape:window-y="-9"
     inkscape:window-maximized="1"
     inkscape:current-layer="svg45" />
  <g
     clip-path="url(#clip0)"
     id="g38"
     transform="matrix(4.520035,0,0,4.520035,-0.13352635,-0.52969386)">
    <path
       d="m 50.4684,4.29939 c -0.0591,0.10309 -0.1478,0.19144 -0.2364,0.26508 -0.0887,0.0589 -0.2069,0.08835 -0.3251,0.08835 -0.1329,0 -0.2659,-0.04418 -0.3693,-0.10308 L 49.0944,4.31412 C 48.9171,4.21104 48.725,4.13741 48.5182,4.0785 48.2818,4.00487 48.0306,3.96069 47.7795,3.97542 c -0.4728,0 -0.8274,0.10308 -1.0638,0.30925 -0.2364,0.20616 -0.3693,0.51541 -0.3545,0.82466 0,0.20617 0.0738,0.39761 0.2068,0.54487 0.1625,0.16199 0.3398,0.2798 0.5466,0.36816 0.2512,0.11781 0.5171,0.22089 0.7831,0.29452 0.2954,0.08836 0.5909,0.19144 0.9012,0.29452 0.3102,0.10309 0.6057,0.23562 0.9012,0.38289 0.2955,0.14726 0.5466,0.32397 0.783,0.55959 0.2364,0.23562 0.4285,0.51542 0.5467,0.82467 0.1477,0.36815 0.2216,0.76576 0.2068,1.16337 0,0.48598 -0.0886,0.97188 -0.2659,1.41368 -0.1773,0.4271 -0.4285,0.8247 -0.7535,1.1487 -0.3546,0.3387 -0.7683,0.6037 -1.241,0.7657 -0.5319,0.1915 -1.0933,0.2946 -1.6695,0.2798 -0.3546,0 -0.6944,-0.0294 -1.0342,-0.1031 -0.3546,-0.0736 -0.6944,-0.1619 -1.0342,-0.2945 -0.325,-0.1178 -0.6353,-0.2798 -0.9307,-0.4565 -0.2808,-0.162 -0.5319,-0.3681 -0.7535,-0.589 l 0.7535,-1.1781 c 0.0591,-0.0884 0.1477,-0.162 0.2363,-0.2062 0.1035,-0.0589 0.2069,-0.0884 0.3251,-0.0884 0.1625,0 0.325,0.059 0.458,0.1473 0.1477,0.1031 0.325,0.2062 0.5171,0.3093 0.2068,0.1178 0.4284,0.2356 0.6648,0.3092 0.2807,0.1031 0.591,0.1473 0.8864,0.1473 0.458,0 0.8126,-0.1031 1.0786,-0.3093 C 48.7398,10.6317 48.858,10.3077 48.858,9.88062 48.8728,9.65972 48.7989,9.43883 48.6511,9.26212 48.5034,9.0854 48.3113,8.95287 48.0897,8.84978 47.8386,8.73198 47.5726,8.64362 47.3067,8.56999 47.0112,8.49636 46.7157,8.408 46.4055,8.30492 46.0952,8.20183 45.7997,8.08402 45.5043,7.95149 45.2088,7.80423 44.9576,7.61278 44.736,7.37717 44.4996,7.12682 44.3076,6.8323 44.1894,6.50832 44.0416,6.09599 43.9678,5.6542 43.9825,5.22714 c 0,-0.41233 0.0887,-0.82466 0.2512,-1.19282 0.1625,-0.3976 0.4137,-0.75103 0.7239,-1.04556 0.3398,-0.32397 0.7387,-0.57432 1.1819,-0.73631 0.5171,-0.19144 1.049,-0.27979 1.5956,-0.27979 0.3251,0 0.6501,0.02945 0.9751,0.07363 0.3103,0.04418 0.6058,0.13253 0.9013,0.23562 0.2807,0.10308 0.5466,0.23562 0.7978,0.38288 0.2363,0.13253 0.458,0.29452 0.6648,0.48596 z"
       fill="#234465"
       id="path2" />
    <path
       d="m 56.0677,5.10938 c 0.5467,0 1.0933,0.08835 1.6104,0.27979 0.4728,0.17672 0.8865,0.44179 1.2558,0.79522 0.3546,0.35342 0.6353,0.78048 0.8126,1.25172 0.2068,0.53014 0.2955,1.08974 0.2955,1.66406 0,0.57432 -0.0887,1.13393 -0.2955,1.67883 -0.1773,0.4712 -0.458,0.913 -0.8126,1.2664 -0.3546,0.3534 -0.783,0.6185 -1.2558,0.7952 -0.5171,0.1915 -1.0637,0.2945 -1.6104,0.2798 -0.5614,0 -1.108,-0.0883 -1.6251,-0.2798 -0.4728,-0.1767 -0.9012,-0.4565 -1.2558,-0.7952 -0.3546,-0.3534 -0.6353,-0.7952 -0.8126,-1.2664 -0.2068,-0.5302 -0.2955,-1.10451 -0.2955,-1.67883 0,-0.55959 0.0887,-1.13392 0.2955,-1.66406 0.1773,-0.47124 0.458,-0.8983 0.8126,-1.26645 0.3693,-0.35343 0.7978,-0.6185 1.2706,-0.79521 0.5023,-0.17672 1.0489,-0.26507 1.6103,-0.26507 z m 0,6.28812 c 0.5319,0 0.9308,-0.1915 1.182,-0.5596 0.2511,-0.3682 0.3841,-0.95724 0.3841,-1.723 0,-0.76576 -0.133,-1.34009 -0.3841,-1.72297 -0.2512,-0.38288 -0.6501,-0.55959 -1.182,-0.55959 -0.5466,0 -0.9603,0.19144 -1.2114,0.55959 -0.2512,0.36816 -0.3842,0.94248 -0.3842,1.72297 0,0.76576 0.133,1.3401 0.3842,1.723 0.2511,0.3828 0.6648,0.5596 1.2114,0.5596 z"
       fill="#234465"
       id="path4" />
    <path
       d="m 69.0098,6.84739 v 3.85821 c 0,0.162 0.0443,0.3093 0.133,0.4418 0.0886,0.1178 0.2364,0.1915 0.3841,0.1767 0.0739,0 0.1478,0 0.2216,-0.0294 0.0444,-0.0147 0.1034,-0.0295 0.1478,-0.0589 l 0.1182,-0.0589 c 0.0443,-0.0147 0.0886,-0.0295 0.1329,-0.0295 0.0591,0 0.1182,0.0148 0.1625,0.0442 0.0444,0.0442 0.0887,0.0884 0.133,0.1473 l 0.7092,1.1192 c -0.3103,0.2209 -0.6501,0.3976 -1.0194,0.5007 -0.3842,0.1178 -0.7683,0.1767 -1.1672,0.1767 -0.3398,0 -0.6648,-0.0442 -0.9751,-0.162 C 67.4438,12.782 67.0153,12.3403 66.838,11.7954 66.7346,11.5009 66.6903,11.1769 66.6903,10.8529 V 6.84739 H 63.898 V 13.0177 H 61.5637 V 6.83266 L 61.0466,6.72958 C 60.8988,6.70012 60.7511,6.64122 60.6181,6.53814 60.4999,6.44978 60.4408,6.30252 60.4556,6.16998 V 5.25696 h 1.0933 V 4.81517 c 0,-0.41233 0.0739,-0.82466 0.2216,-1.20754 0.133,-0.35343 0.3398,-0.66268 0.6205,-0.92775 0.2807,-0.26508 0.6205,-0.45652 0.9751,-0.58905 0.4285,-0.14726 0.8717,-0.22089 1.3149,-0.20617 0.1773,0 0.3546,0 0.5319,0.02945 0.1773,0.02946 0.3398,0.05891 0.5023,0.10309 l -0.0443,1.13391 c 0,0.07363 -0.0296,0.13254 -0.0591,0.20617 -0.0296,0.05891 -0.0887,0.10308 -0.133,0.13254 -0.0591,0.02945 -0.1182,0.0589 -0.1773,0.07363 -0.0591,0.01472 -0.133,0.01472 -0.192,0.01472 -0.1773,0 -0.3694,0.01473 -0.5467,0.05891 -0.1477,0.02945 -0.2955,0.10308 -0.3989,0.22089 -0.1182,0.11781 -0.1921,0.25035 -0.2364,0.41233 -0.0591,0.20617 -0.0886,0.41234 -0.0886,0.63323 v 0.36815 h 2.9843 l 0.4728,-1.9144 c 0.0591,-0.23562 0.2364,-0.35343 0.5171,-0.35343 h 1.2115 V 5.27168 H 70.96 v 1.59043 z"
       fill="#234465"
       id="path6" />
    <path
       d="m 83.4147,5.24519 -2.4229,7.77541 h -1.8911 c -0.0887,0 -0.1773,-0.0294 -0.2512,-0.0883 -0.0886,-0.0737 -0.133,-0.1768 -0.1625,-0.2946 L 77.5789,8.76475 C 77.5198,8.58804 77.4755,8.41132 77.4312,8.24934 77.3869,8.07262 77.3425,7.91063 77.313,7.73392 77.2835,7.91063 77.2391,8.08735 77.1948,8.26406 77.1505,8.44078 77.1062,8.61749 77.0471,8.79421 l -1.1229,3.85829 c -0.0443,0.2356 -0.2511,0.3976 -0.4875,0.3828 h -1.8024 l -2.423,-7.77538 h 1.8468 c 0.1477,0 0.2954,0.02945 0.4136,0.11781 0.1035,0.07363 0.1921,0.17671 0.2216,0.29452 l 0.7831,3.47538 c 0.0591,0.26508 0.1182,0.51542 0.1773,0.76577 0.0443,0.2503 0.0886,0.5007 0.1329,0.751 0.0591,-0.2503 0.133,-0.5007 0.2069,-0.751 0.0738,-0.25035 0.1477,-0.50069 0.2364,-0.76577 l 0.975,-3.4901 C 76.2493,5.53972 76.3231,5.43664 76.4266,5.363 76.5447,5.28937 76.6777,5.24519 76.8107,5.24519 h 1.0342 c 0.1477,0 0.2955,0.02946 0.4136,0.11781 0.1035,0.07364 0.1921,0.17672 0.2217,0.29453 l 0.9307,3.4901 c 0.0739,0.26508 0.1478,0.51542 0.2216,0.76577 0.0739,0.2503 0.133,0.5007 0.2069,0.751 0.0443,-0.2503 0.0886,-0.5007 0.1477,-0.751 0.0591,-0.25035 0.1182,-0.51542 0.1773,-0.78049 L 80.9918,5.6428 c 0.0443,-0.11781 0.1181,-0.22089 0.2216,-0.29452 0.1182,-0.07363 0.2511,-0.11781 0.3989,-0.11781 z"
       fill="#234465"
       id="path8" />
    <path
       d="m 83.9613,6.31903 c 0.458,-0.41233 0.9899,-0.72158 1.5661,-0.92775 0.5909,-0.20617 1.2115,-0.30925 1.8467,-0.30925 0.4285,0 0.8717,0.07363 1.2706,0.22089 0.3546,0.14727 0.6944,0.35343 0.9603,0.63323 0.266,0.2798 0.4728,0.60377 0.6058,0.97193 0.1477,0.39761 0.2216,0.80994 0.2068,1.237 V 13.0047 H 89.3539 C 89.1766,13.0194 89.0141,12.99 88.8516,12.9164 88.7186,12.828 88.6152,12.6955 88.5708,12.5335 l -0.1625,-0.4271 c -0.192,0.162 -0.3841,0.3093 -0.5614,0.4418 -0.1773,0.1178 -0.3693,0.2356 -0.5614,0.324 -0.1921,0.0883 -0.3989,0.1472 -0.6205,0.1914 -0.2364,0.0442 -0.4876,0.0589 -0.724,0.0589 -0.325,0 -0.65,-0.0442 -0.9751,-0.1325 -0.2659,-0.0884 -0.517,-0.2209 -0.7387,-0.4123 -0.2068,-0.1915 -0.3693,-0.4124 -0.4727,-0.6774 -0.1182,-0.2946 -0.1773,-0.6038 -0.1625,-0.9278 0,-0.2945 0.0738,-0.589 0.2068,-0.8541 0.1773,-0.32399 0.4284,-0.58906 0.7239,-0.7805 0.4285,-0.26507 0.9012,-0.47124 1.4036,-0.58905 0.7239,-0.17671 1.4626,-0.26507 2.2161,-0.26507 v -0.3387 c 0,-0.45651 -0.0887,-0.78049 -0.2807,-0.98666 -0.2069,-0.20616 -0.5023,-0.32397 -0.7978,-0.30925 -0.2216,0 -0.458,0.02946 -0.6796,0.08836 -0.1625,0.0589 -0.3251,0.11781 -0.4728,0.20617 -0.133,0.07363 -0.2659,0.14726 -0.3989,0.20616 -0.1478,0.05891 -0.3103,0.08836 -0.4728,0.08836 -0.1477,0 -0.2807,-0.04418 -0.4137,-0.11781 -0.1034,-0.07363 -0.192,-0.17671 -0.2659,-0.2798 z m 4.1959,3.53428 c -0.3842,0.01473 -0.7683,0.04418 -1.1524,0.11781 -0.2512,0.04418 -0.4876,0.11778 -0.7092,0.22088 -0.1477,0.0736 -0.2807,0.1767 -0.3693,0.3093 -0.0739,0.1178 -0.1034,0.2356 -0.1034,0.3681 0,0.2651 0.0738,0.4565 0.2216,0.5596 0.192,0.1178 0.4136,0.1767 0.6353,0.162 0.2659,0 0.5466,-0.0442 0.783,-0.162 0.2511,-0.1325 0.4875,-0.2945 0.6796,-0.5154 z"
       fill="#234465"
       id="path10" />
    <path
       d="m 94.0962,6.43542 c 0.2069,-0.38288 0.4876,-0.72159 0.8274,-0.98666 0.3102,-0.23562 0.6944,-0.36815 1.0785,-0.35343 0.3102,-0.01472 0.6057,0.07363 0.8569,0.25035 l -0.1478,1.70824 c -0.0147,0.08835 -0.059,0.16198 -0.1181,0.22089 -0.0739,0.04418 -0.1478,0.0589 -0.2364,0.0589 -0.0443,0 -0.0887,0 -0.1625,0 L 95.9873,7.31899 95.7657,7.28953 c -0.0591,0 -0.133,-0.01472 -0.1921,-0.01472 C 95.2782,7.26008 94.9827,7.34844 94.7611,7.53988 94.5395,7.74605 94.3622,8.01112 94.244,8.29092 V 13.0033 H 91.9097 V 5.2426 h 1.3887 c 0.1035,0 0.1921,0 0.2955,0.02945 0.0739,0.01472 0.133,0.04418 0.1921,0.08835 0.0591,0.04418 0.0886,0.10309 0.1182,0.16199 0.0295,0.08836 0.0591,0.16199 0.0738,0.25035 z"
       fill="#234465"
       id="path12" />
    <path
       d="m 99.4298,9.54419 c 0.0739,0.64791 0.2659,1.11921 0.5912,1.41371 0.34,0.2945 0.783,0.4565 1.241,0.4418 0.236,0 0.473,-0.0295 0.694,-0.1031 0.177,-0.0589 0.355,-0.1325 0.517,-0.2209 l 0.414,-0.2209 c 0.118,-0.0589 0.266,-0.1031 0.399,-0.1031 0.162,-0.0147 0.325,0.0737 0.414,0.2062 l 0.679,0.8394 c -0.221,0.2651 -0.487,0.486 -0.783,0.6774 -0.266,0.162 -0.561,0.3093 -0.857,0.4123 -0.295,0.1031 -0.591,0.162 -0.886,0.2062 -0.281,0.0295 -0.562,0.0589 -0.842,0.0589 -0.532,0 -1.0493,-0.0883 -1.5369,-0.2651 -0.4727,-0.1767 -0.9012,-0.4417 -1.2558,-0.7952 -0.3693,-0.3681 -0.6648,-0.8099 -0.8569,-1.2959 -0.2216,-0.5743 -0.325,-1.1928 -0.3102,-1.8113 0,-0.50069 0.0886,-1.00138 0.2659,-1.47262 0.3398,-0.92775 1.0638,-1.66406 1.9797,-2.04694 0.9602,-0.38288 2.0392,-0.41233 3.0292,-0.07363 0.413,0.14726 0.797,0.38288 1.108,0.69213 0.31,0.32398 0.561,0.70686 0.724,1.11919 0.177,0.48596 0.265,0.98665 0.265,1.50207 0,0.14726 0,0.2798 -0.029,0.42706 -0.015,0.08836 -0.044,0.17671 -0.089,0.26507 -0.029,0.05891 -0.088,0.10308 -0.162,0.13254 -0.089,0.02945 -0.178,0.04418 -0.266,0.02945 z m 2.9252,-1.35481 c 0,-0.17671 -0.029,-0.36815 -0.074,-0.54486 -0.044,-0.17672 -0.118,-0.32398 -0.236,-0.47124 -0.118,-0.14726 -0.266,-0.25035 -0.429,-0.33871 -0.206,-0.08835 -0.413,-0.13253 -0.635,-0.13253 -0.384,-0.01473 -0.753,0.11781 -1.0341,0.38288 -0.2807,0.30925 -0.4432,0.6774 -0.5023,1.08974 z"
       fill="#234465"
       id="path14" />
    <path
       d="m 48.9761,25.6515 c 0.3103,0 0.6205,-0.0589 0.916,-0.162 0.2659,-0.103 0.4876,-0.265 0.6796,-0.4859 0.1921,-0.2209 0.3398,-0.486 0.4285,-0.7658 0.1034,-0.3387 0.1477,-0.6774 0.1477,-1.0308 v -6.4648 h 2.5412 v 6.4648 c 0,0.6332 -0.1035,1.2517 -0.3251,1.8408 -0.2068,0.5448 -0.5318,1.0308 -0.9307,1.4431 -0.4137,0.4124 -0.9308,0.7363 -1.4775,0.9425 -1.2705,0.4565 -2.6593,0.4565 -3.9299,0 -0.5466,-0.2062 -1.0637,-0.5301 -1.4774,-0.9425 -0.4137,-0.4123 -0.7239,-0.8983 -0.9307,-1.4431 -0.2217,-0.5891 -0.3251,-1.2076 -0.3251,-1.8408 v -6.4648 h 2.5412 v 6.4648 c 0,0.3534 0.0443,0.6921 0.1477,1.0308 0.0887,0.2798 0.2364,0.5449 0.4285,0.7658 0.192,0.2061 0.4136,0.3829 0.6796,0.4859 0.2659,0.1179 0.5762,0.162 0.8864,0.162 z"
       fill="#234465"
       id="path16" />
    <path
       d="m 57.294,20.7205 c 0.1477,-0.1325 0.3102,-0.2651 0.4728,-0.3829 0.1625,-0.1178 0.3398,-0.2209 0.517,-0.3092 0.1921,-0.0884 0.3842,-0.1473 0.591,-0.1915 0.2216,-0.0441 0.458,-0.0736 0.6944,-0.0736 0.3841,-0.0147 0.7682,0.0736 1.1376,0.2209 0.325,0.1473 0.6057,0.3534 0.8273,0.6185 0.2364,0.2798 0.3989,0.5891 0.5171,0.9425 0.1182,0.3829 0.1773,0.7805 0.1773,1.1781 v 4.948 H 59.8942 V 22.738 c 0.0148,-0.3092 -0.0738,-0.6332 -0.2659,-0.8836 -0.1921,-0.2209 -0.4876,-0.3387 -0.7683,-0.3239 -0.2511,0 -0.4875,0.0589 -0.7239,0.1619 -0.2364,0.1179 -0.458,0.2651 -0.6501,0.4418 v 5.5371 h -2.3343 v -7.7902 h 1.4479 c 0.2659,-0.0147 0.5023,0.1473 0.5762,0.3829 z"
       fill="#234465"
       id="path18" />
    <path
       d="m 66.3358,17.7602 c 0,0.1767 -0.0443,0.3534 -0.1182,0.5154 -0.0739,0.162 -0.1773,0.3092 -0.3103,0.427 -0.1329,0.1178 -0.2807,0.2209 -0.458,0.2946 -0.1773,0.0736 -0.3693,0.103 -0.5466,0.103 -0.1773,0 -0.3694,-0.0294 -0.5319,-0.103 -0.1625,-0.0737 -0.3102,-0.1768 -0.4432,-0.2946 -0.1182,-0.1178 -0.2216,-0.265 -0.2955,-0.427 -0.0739,-0.162 -0.1034,-0.3387 -0.1034,-0.5154 0,-0.1768 0.0295,-0.3682 0.1034,-0.5302 0.0739,-0.162 0.1625,-0.3092 0.2955,-0.4418 0.133,-0.1325 0.2807,-0.2209 0.4432,-0.2945 0.1625,-0.0736 0.3546,-0.1031 0.5319,-0.1031 0.1921,0 0.3841,0.0295 0.5466,0.1031 0.1626,0.0736 0.3251,0.162 0.458,0.2945 0.133,0.1326 0.2364,0.2798 0.3103,0.4418 0.0739,0.162 0.1182,0.3387 0.1182,0.5302 z m -0.2364,2.1205 v 7.7754 h -2.3343 v -7.7754 z"
       fill="#234465"
       id="path20" />
    <path
       d="m 75.0672,19.8828 -3.0139,7.7754 h -2.1275 l -3.0139,-7.7754 h 1.9354 c 0.1477,0 0.2955,0.0295 0.4137,0.1178 0.1034,0.0737 0.192,0.1767 0.2216,0.2945 l 1.0785,3.4902 c 0.1034,0.2797 0.1773,0.5595 0.2511,0.8246 0.0739,0.2651 0.133,0.5449 0.1921,0.81 0.1182,-0.5596 0.2659,-1.1045 0.458,-1.6346 l 1.1228,-3.4902 c 0.0444,-0.1178 0.1182,-0.2208 0.2216,-0.2945 0.1182,-0.0736 0.2512,-0.1178 0.3842,-0.1178 z"
       fill="#234465"
       id="path22" />
    <path
       d="m 77.4902,24.183 c 0.0739,0.648 0.266,1.1192 0.591,1.4137 0.3398,0.2946 0.783,0.4565 1.241,0.4418 0.2364,0 0.4728,-0.0294 0.6944,-0.1031 0.1773,-0.0589 0.3546,-0.1325 0.5171,-0.2209 l 0.4137,-0.2209 c 0.1182,-0.0589 0.2659,-0.103 0.3989,-0.103 0.1625,-0.0148 0.325,0.0736 0.4137,0.2061 l 0.6796,0.8247 c -0.2216,0.2651 -0.4876,0.486 -0.7831,0.6774 -0.2659,0.162 -0.5614,0.3093 -0.8568,0.4123 -0.2955,0.1031 -0.591,0.162 -0.8865,0.2062 -0.2807,0.0295 -0.5614,0.0589 -0.8421,0.0589 -0.5319,0 -1.049,-0.0884 -1.5365,-0.2651 -0.4728,-0.1767 -0.9013,-0.4418 -1.2558,-0.7952 -0.3694,-0.3681 -0.6649,-0.8099 -0.8569,-1.3106 -0.2216,-0.5743 -0.3251,-1.1928 -0.3103,-1.8113 0,-0.5007 0.0887,-1.0014 0.266,-1.4726 0.3398,-0.9278 1.0637,-1.6641 1.9797,-2.047 0.9603,-0.3829 2.0388,-0.4123 3.0287,-0.0736 0.4136,0.1472 0.7978,0.3829 1.108,0.6921 0.3103,0.324 0.5614,0.7069 0.724,1.1192 0.1773,0.486 0.2659,0.9867 0.2659,1.5021 0,0.1472 0,0.2798 -0.0296,0.427 -0.0147,0.0884 -0.0443,0.1767 -0.0886,0.2651 -0.0295,0.0589 -0.0886,0.1031 -0.1625,0.1325 -0.0887,0.0295 -0.1773,0.0442 -0.2659,0.0295 z m 2.9253,-1.3401 c 0,-0.1767 -0.0295,-0.3681 -0.0739,-0.5448 -0.0443,-0.1767 -0.1181,-0.324 -0.2363,-0.4713 -0.1182,-0.1472 -0.266,-0.2503 -0.4285,-0.3387 -0.2068,-0.0883 -0.4137,-0.1325 -0.6353,-0.1325 -0.3841,-0.0147 -0.7535,0.1178 -1.0342,0.3829 -0.2807,0.3092 -0.4432,0.6774 -0.5023,1.0897 z"
       fill="#234465"
       id="path24" />
    <path
       d="m 85.8523,21.0878 c 0.2069,-0.3829 0.4876,-0.7216 0.8274,-0.9867 0.3102,-0.2356 0.6944,-0.3681 1.0785,-0.3534 0.3102,-0.0147 0.6057,0.0736 0.8569,0.2503 l -0.1478,1.7083 c -0.0147,0.0883 -0.059,0.1619 -0.1181,0.2208 -0.0739,0.0442 -0.1478,0.059 -0.2364,0.059 -0.0443,0 -0.0887,0 -0.1625,-0.0148 l -0.2069,-0.0147 -0.2068,-0.0147 c -0.0591,0 -0.133,-0.0148 -0.1921,-0.0148 -0.2955,-0.0147 -0.5909,0.0737 -0.8126,0.2651 -0.2216,0.2062 -0.3989,0.4713 -0.5171,0.7511 v 4.7271 h -2.3343 v -7.7902 h 1.3888 c 0.1034,0 0.1921,0 0.2955,0.0295 0.0739,0.0147 0.133,0.0441 0.192,0.0883 0.0591,0.0442 0.0887,0.1031 0.1182,0.162 0.0296,0.0884 0.0591,0.162 0.0739,0.2504 z"
       fill="#234465"
       id="path26" />
    <path
       d="m 94.3623,21.589 c -0.0443,0.0883 -0.1182,0.1472 -0.1921,0.2061 -0.0738,0.0442 -0.1625,0.0589 -0.2659,0.0589 -0.1182,0 -0.2216,-0.0294 -0.325,-0.0736 l -0.3546,-0.1472 c -0.1477,-0.059 -0.2807,-0.1031 -0.4285,-0.1473 -0.1772,-0.0442 -0.3693,-0.0736 -0.5466,-0.0736 -0.2364,-0.0148 -0.4728,0.0441 -0.6796,0.1619 -0.1477,0.1031 -0.2364,0.2798 -0.2364,0.4713 0,0.1325 0.0443,0.2651 0.1478,0.3534 0.1181,0.1031 0.2659,0.1915 0.4136,0.2504 0.1921,0.0736 0.3842,0.1472 0.5762,0.2061 0.2216,0.0589 0.4432,0.1326 0.6649,0.2209 0.2216,0.0737 0.4432,0.1767 0.6648,0.2798 0.2068,0.1031 0.3989,0.2356 0.5762,0.3976 0.1773,0.162 0.3102,0.3535 0.4136,0.5743 0.1035,0.2504 0.1626,0.5302 0.1478,0.81 0,0.3681 -0.0739,0.7216 -0.2068,1.0603 -0.1478,0.3239 -0.3546,0.6185 -0.6206,0.8394 -0.3102,0.2503 -0.65,0.4417 -1.0341,0.5448 -0.458,0.1326 -0.9308,0.2062 -1.4036,0.1915 -0.2659,0 -0.5319,-0.0295 -0.7978,-0.0737 C 90.6097,27.6562 90.3585,27.5825 90.1074,27.4942 89.871,27.4205 89.6346,27.3175 89.413,27.1849 89.2209,27.0818 89.0436,26.9493 88.8663,26.802 l 0.5467,-0.8541 c 0.0591,-0.1031 0.1329,-0.1767 0.2216,-0.2356 0.1034,-0.0589 0.2364,-0.0884 0.3546,-0.0884 0.1329,0 0.2511,0.0295 0.3693,0.0884 l 0.3546,0.1914 c 0.1477,0.0737 0.2955,0.1473 0.4432,0.1915 0.2069,0.0589 0.4137,0.1031 0.6353,0.0883 0.1477,0 0.3103,-0.0147 0.458,-0.0589 0.1034,-0.0294 0.2068,-0.0736 0.2955,-0.1472 0.133,-0.1178 0.2216,-0.2798 0.2216,-0.4713 0,-0.1472 -0.0591,-0.2798 -0.1625,-0.3828 -0.1182,-0.1031 -0.266,-0.1915 -0.4137,-0.2651 -0.1921,-0.0736 -0.3841,-0.1473 -0.5762,-0.2062 -0.2216,-0.0589 -0.4432,-0.1325 -0.6648,-0.2061 -0.2216,-0.0884 -0.4432,-0.1768 -0.6649,-0.2946 -0.2216,-0.1178 -0.4136,-0.2503 -0.5761,-0.427 -0.1773,-0.1767 -0.3251,-0.3976 -0.4137,-0.6333 -0.1182,-0.2945 -0.1625,-0.6037 -0.1625,-0.913 0,-0.324 0.0591,-0.6479 0.192,-0.9425 0.133,-0.2945 0.3251,-0.5743 0.5762,-0.7804 0.2807,-0.2357 0.6058,-0.4271 0.9603,-0.5302 0.4433,-0.1472 0.9013,-0.2061 1.3593,-0.2061 0.2807,0 0.5466,0.0294 0.8125,0.0736 0.2512,0.0442 0.5024,0.1178 0.7387,0.2061 0.2217,0.0884 0.4285,0.1915 0.6353,0.324 0.1773,0.1178 0.3546,0.2504 0.5023,0.3976 z"
       fill="#234465"
       id="path28" />
    <path
       d="m 98.7353,17.7602 c 0,0.1767 -0.0443,0.3534 -0.1182,0.5154 -0.0738,0.162 -0.1773,0.3092 -0.3102,0.427 -0.133,0.1178 -0.2807,0.2209 -0.458,0.2946 -0.1773,0.0736 -0.3694,0.103 -0.5467,0.103 -0.1773,0 -0.3693,-0.0294 -0.5318,-0.103 -0.1626,-0.0737 -0.3103,-0.1768 -0.4433,-0.2946 -0.1182,-0.1178 -0.2216,-0.265 -0.2955,-0.427 -0.0738,-0.162 -0.1034,-0.3387 -0.1034,-0.5154 0,-0.1768 0.0296,-0.3682 0.1034,-0.5302 0.0739,-0.162 0.1626,-0.3092 0.2955,-0.4418 0.133,-0.1325 0.2807,-0.2209 0.4433,-0.2945 0.1625,-0.0736 0.3545,-0.1031 0.5318,-0.1031 0.1921,0 0.3841,0.0295 0.5467,0.1031 0.1625,0.0736 0.325,0.162 0.458,0.2945 0.1329,0.1326 0.2364,0.2798 0.3102,0.4418 0.0739,0.162 0.1182,0.3387 0.1182,0.5302 z m -0.2511,2.1205 v 7.7754 h -2.3344 v -7.7754 z"
       fill="#234465"
       id="path30" />
    <path
       d="m 102.916,27.7713 c -0.339,0 -0.664,-0.0441 -0.975,-0.1619 -0.546,-0.1915 -0.975,-0.6333 -1.152,-1.1781 -0.103,-0.2946 -0.148,-0.6185 -0.148,-0.9425 v -4.0055 h -0.6646 c -0.2364,0.0147 -0.4284,-0.162 -0.4432,-0.3976 0,-0.0148 0,-0.0442 0,-0.059 v -0.913 l 1.2408,-0.2356 0.458,-1.8997 c 0.059,-0.2356 0.237,-0.3534 0.517,-0.3534 h 1.212 v 2.2678 h 1.935 v 1.5905 h -1.935 v 3.8582 c 0,0.162 0.044,0.3093 0.133,0.4418 0.088,0.1178 0.236,0.1914 0.384,0.1767 0.074,0 0.148,0 0.221,-0.0294 0.045,-0.0148 0.104,-0.0295 0.148,-0.0589 l 0.118,-0.0589 c 0.045,-0.0148 0.089,-0.0295 0.133,-0.0295 0.059,0 0.119,0.0147 0.178,0.0442 0.044,0.0442 0.088,0.0883 0.133,0.1472 l 0.709,1.1045 c -0.31,0.2209 -0.65,0.3976 -1.02,0.5007 -0.399,0.1325 -0.797,0.1914 -1.182,0.1914 z"
       fill="#234465"
       id="path32" />
    <path
       d="m 113.303,19.8817 -4.167,9.7929 c -0.103,0.3093 -0.413,0.5007 -0.738,0.4565 h -1.744 l 1.507,-3.1514 -3.117,-7.098 h 2.054 c 0.147,-0.0147 0.295,0.0294 0.413,0.1178 0.089,0.0736 0.163,0.1767 0.222,0.2798 l 1.285,3.3576 c 0.118,0.3092 0.222,0.6185 0.296,0.9425 l 0.162,-0.486 c 0.059,-0.162 0.118,-0.324 0.177,-0.4713 l 1.153,-3.3281 c 0.044,-0.1178 0.133,-0.2209 0.236,-0.2945 0.104,-0.0736 0.237,-0.1178 0.37,-0.1178 z"
       fill="#234465"
       id="path34" />
    <path
       d="M 36.3738,8.17241 21.1713,0.117188 V 4.77066 l 10.0168,5.47814 -10.0168,5.0953 v 4.5945 l 6.4119,-3.2545 v 5.9347 l -9.219,4.5651 -0.0148,-0.0147 -0.0147,0.0147 -9.21909,-4.5651 v -5.9347 l 6.41199,3.2545 V 15.3293 L 5.51073,10.2488 15.5276,4.77066 V 0.117188 L 0.029541,8.3344 v 3.7257 L 4.99364,14.593 V 25.1517 L 18.3494,31.7638 31.7052,25.1517 V 14.593 l 4.6686,-2.3856 z"
       fill="#ffa000"
       id="path36" />
  </g>
  <defs
     id="defs43">
    <clipPath
       id="clip0">
      <rect
         width="113.509"
         height="32"
         fill="#ffffff"
         id="rect40"
         x="0"
         y="0" />
    </clipPath>
  </defs>
</svg>
